<svg xmlns="http://www.w3.org/2000/svg" viewBox="0 0 64 64">
  <rect width="64" height="64" rx="10" fill="#08090b"/>
  <path d="M43.5 47.5c-4.1 3.4-9.5 4.9-14.8 4.1C17.1 49.8 9 39.5 10.8 27.9 12.4 17.5 21.2 9.7 31.8 9.7c4.6 0 9.1 1.5 12.7 4.3l-5.1 5.8c-2.1-1.5-4.7-2.3-7.4-2.3-6.8 0-12.6 5-13.7 11.8-1.2 7.5 4 14.6 11.5 15.8 3.4.5 6.9-.3 9.6-2.4l4.1 4.8z" fill="url(#g)"/>
  <defs><linearGradient id="g" x1="12" x2="49" y1="13" y2="51" gradientUnits="userSpaceOnUse"><stop stop-color="#18f1e9"/><stop offset="1" stop-color="#4967ff"/></linearGradient></defs>
</svg>
